<mxfile host="app.diagrams.net" modified="2021-01-16T14:14:50.538Z" agent="5.0 (Windows NT 10.0; Win64; x64) AppleWebKit/537.36 (KHTML, like Gecko) Chrome/87.0.4280.141 Safari/537.36" etag="1CG4saznI8h_nqdNM7Kf" version="14.2.4" type="github">
  <diagram id="D9aLPQN2KOzKNYfNjTsP" name="Page-1">
    <mxGraphModel dx="1422" dy="762" grid="1" gridSize="10" guides="1" tooltips="1" connect="1" arrows="1" fold="1" page="1" pageScale="1" pageWidth="827" pageHeight="1169" math="0" shadow="0">
      <root>
        <mxCell id="0" />
        <mxCell id="1" parent="0" />
        <mxCell id="UvzDQ6ZtJ3tF6trI1SN7-7" value="" style="edgeStyle=orthogonalEdgeStyle;rounded=0;orthogonalLoop=1;jettySize=auto;html=1;" parent="1" source="UvzDQ6ZtJ3tF6trI1SN7-1" target="UvzDQ6ZtJ3tF6trI1SN7-6" edge="1">
          <mxGeometry relative="1" as="geometry" />
        </mxCell>
        <mxCell id="UvzDQ6ZtJ3tF6trI1SN7-1" value="Packet 1: Flag" style="rounded=0;whiteSpace=wrap;html=1;" parent="1" vertex="1">
          <mxGeometry x="310" y="180" width="120" height="60" as="geometry" />
        </mxCell>
        <mxCell id="UvzDQ6ZtJ3tF6trI1SN7-9" value="" style="edgeStyle=orthogonalEdgeStyle;rounded=0;orthogonalLoop=1;jettySize=auto;html=1;entryX=0.5;entryY=0;entryDx=0;entryDy=0;" parent="1" source="UvzDQ6ZtJ3tF6trI1SN7-5" target="UvzDQ6ZtJ3tF6trI1SN7-27" edge="1">
          <mxGeometry relative="1" as="geometry">
            <mxPoint x="370" y="90" as="targetPoint" />
          </mxGeometry>
        </mxCell>
        <mxCell id="UvzDQ6ZtJ3tF6trI1SN7-5" value="Start" style="ellipse;whiteSpace=wrap;html=1;" parent="1" vertex="1">
          <mxGeometry x="310" y="20" width="120" height="50" as="geometry" />
        </mxCell>
        <mxCell id="UvzDQ6ZtJ3tF6trI1SN7-12" value="" style="edgeStyle=orthogonalEdgeStyle;rounded=0;orthogonalLoop=1;jettySize=auto;html=1;" parent="1" source="UvzDQ6ZtJ3tF6trI1SN7-6" target="UvzDQ6ZtJ3tF6trI1SN7-10" edge="1">
          <mxGeometry relative="1" as="geometry" />
        </mxCell>
        <mxCell id="UvzDQ6ZtJ3tF6trI1SN7-13" value="" style="edgeStyle=orthogonalEdgeStyle;rounded=0;orthogonalLoop=1;jettySize=auto;html=1;" parent="1" source="UvzDQ6ZtJ3tF6trI1SN7-6" target="UvzDQ6ZtJ3tF6trI1SN7-11" edge="1">
          <mxGeometry relative="1" as="geometry" />
        </mxCell>
        <mxCell id="UvzDQ6ZtJ3tF6trI1SN7-6" value="What is the value of flag?" style="rhombus;whiteSpace=wrap;html=1;" parent="1" vertex="1">
          <mxGeometry x="275" y="260" width="190" height="80" as="geometry" />
        </mxCell>
        <mxCell id="UvzDQ6ZtJ3tF6trI1SN7-10" value="Single File" style="rounded=0;whiteSpace=wrap;html=1;" parent="1" vertex="1">
          <mxGeometry x="130" y="270" width="120" height="60" as="geometry" />
        </mxCell>
        <mxCell id="UvzDQ6ZtJ3tF6trI1SN7-11" value="Multiple Files" style="rounded=0;whiteSpace=wrap;html=1;" parent="1" vertex="1">
          <mxGeometry x="490" y="270" width="120" height="60" as="geometry" />
        </mxCell>
        <mxCell id="UvzDQ6ZtJ3tF6trI1SN7-14" value="Write or read enum as Int16 (short) in stream" style="rounded=0;whiteSpace=wrap;html=1;" parent="1" vertex="1">
          <mxGeometry x="310" y="360" width="120" height="50" as="geometry" />
        </mxCell>
        <mxCell id="UvzDQ6ZtJ3tF6trI1SN7-15" value="" style="endArrow=classic;html=1;exitX=0.5;exitY=1;exitDx=0;exitDy=0;entryX=0.5;entryY=0;entryDx=0;entryDy=0;" parent="1" source="UvzDQ6ZtJ3tF6trI1SN7-10" target="UvzDQ6ZtJ3tF6trI1SN7-14" edge="1">
          <mxGeometry width="50" height="50" relative="1" as="geometry">
            <mxPoint x="390" y="480" as="sourcePoint" />
            <mxPoint x="440" y="430" as="targetPoint" />
          </mxGeometry>
        </mxCell>
        <mxCell id="UvzDQ6ZtJ3tF6trI1SN7-18" value="Packet 2" style="rounded=0;whiteSpace=wrap;html=1;" parent="1" vertex="1">
          <mxGeometry x="310" y="550" width="120" height="60" as="geometry" />
        </mxCell>
        <mxCell id="UvzDQ6ZtJ3tF6trI1SN7-19" value="Part 1: &lt;br&gt;Length of bytes of file name" style="rounded=1;whiteSpace=wrap;html=1;" parent="1" vertex="1">
          <mxGeometry x="150" y="530" width="120" height="50" as="geometry" />
        </mxCell>
        <mxCell id="UvzDQ6ZtJ3tF6trI1SN7-20" value="Part 2: &lt;br&gt;File name" style="rounded=1;whiteSpace=wrap;html=1;" parent="1" vertex="1">
          <mxGeometry x="150" y="600" width="120" height="30" as="geometry" />
        </mxCell>
        <mxCell id="UvzDQ6ZtJ3tF6trI1SN7-21" value="" style="endArrow=none;html=1;entryX=1;entryY=0.5;entryDx=0;entryDy=0;exitX=0;exitY=0.5;exitDx=0;exitDy=0;" parent="1" source="UvzDQ6ZtJ3tF6trI1SN7-18" target="UvzDQ6ZtJ3tF6trI1SN7-19" edge="1">
          <mxGeometry width="50" height="50" relative="1" as="geometry">
            <mxPoint x="390" y="580" as="sourcePoint" />
            <mxPoint x="440" y="530" as="targetPoint" />
          </mxGeometry>
        </mxCell>
        <mxCell id="UvzDQ6ZtJ3tF6trI1SN7-22" value="" style="endArrow=none;html=1;exitX=1;exitY=0.5;exitDx=0;exitDy=0;" parent="1" source="UvzDQ6ZtJ3tF6trI1SN7-20" edge="1">
          <mxGeometry width="50" height="50" relative="1" as="geometry">
            <mxPoint x="390" y="580" as="sourcePoint" />
            <mxPoint x="310" y="580" as="targetPoint" />
          </mxGeometry>
        </mxCell>
        <mxCell id="UvzDQ6ZtJ3tF6trI1SN7-24" value="Write in stream or read from stream int32 (length) and string (file name)" style="rounded=0;whiteSpace=wrap;html=1;" parent="1" vertex="1">
          <mxGeometry x="310" y="630" width="120" height="60" as="geometry" />
        </mxCell>
        <mxCell id="UvzDQ6ZtJ3tF6trI1SN7-25" value="" style="endArrow=classic;html=1;exitX=0.5;exitY=1;exitDx=0;exitDy=0;entryX=0.5;entryY=0;entryDx=0;entryDy=0;" parent="1" source="UvzDQ6ZtJ3tF6trI1SN7-18" target="UvzDQ6ZtJ3tF6trI1SN7-24" edge="1">
          <mxGeometry width="50" height="50" relative="1" as="geometry">
            <mxPoint x="390" y="560" as="sourcePoint" />
            <mxPoint x="440" y="510" as="targetPoint" />
          </mxGeometry>
        </mxCell>
        <mxCell id="UvzDQ6ZtJ3tF6trI1SN7-27" value="Start server or make a connection to server using TCP&amp;nbsp;" style="rounded=0;whiteSpace=wrap;html=1;" parent="1" vertex="1">
          <mxGeometry x="310" y="100" width="120" height="50" as="geometry" />
        </mxCell>
        <mxCell id="UvzDQ6ZtJ3tF6trI1SN7-28" value="" style="endArrow=classic;html=1;exitX=0.5;exitY=1;exitDx=0;exitDy=0;entryX=0.5;entryY=0;entryDx=0;entryDy=0;" parent="1" source="UvzDQ6ZtJ3tF6trI1SN7-27" target="UvzDQ6ZtJ3tF6trI1SN7-1" edge="1">
          <mxGeometry width="50" height="50" relative="1" as="geometry">
            <mxPoint x="390" y="380" as="sourcePoint" />
            <mxPoint x="440" y="330" as="targetPoint" />
          </mxGeometry>
        </mxCell>
        <mxCell id="UvzDQ6ZtJ3tF6trI1SN7-30" value="Packet 3" style="rounded=0;whiteSpace=wrap;html=1;" parent="1" vertex="1">
          <mxGeometry x="310" y="710" width="120" height="40" as="geometry" />
        </mxCell>
        <mxCell id="UvzDQ6ZtJ3tF6trI1SN7-31" value="Part 1: &lt;br&gt;Length of file" style="rounded=1;whiteSpace=wrap;html=1;" parent="1" vertex="1">
          <mxGeometry x="150" y="690" width="120" height="30" as="geometry" />
        </mxCell>
        <mxCell id="UvzDQ6ZtJ3tF6trI1SN7-32" value="Part 2: &lt;br&gt;File bytes" style="rounded=1;whiteSpace=wrap;html=1;" parent="1" vertex="1">
          <mxGeometry x="150" y="740" width="120" height="30" as="geometry" />
        </mxCell>
        <mxCell id="UvzDQ6ZtJ3tF6trI1SN7-37" value="" style="endArrow=none;html=1;exitX=1;exitY=0.5;exitDx=0;exitDy=0;entryX=0;entryY=0.5;entryDx=0;entryDy=0;" parent="1" source="UvzDQ6ZtJ3tF6trI1SN7-31" target="UvzDQ6ZtJ3tF6trI1SN7-30" edge="1">
          <mxGeometry width="50" height="50" relative="1" as="geometry">
            <mxPoint x="390" y="680" as="sourcePoint" />
            <mxPoint x="440" y="630" as="targetPoint" />
          </mxGeometry>
        </mxCell>
        <mxCell id="UvzDQ6ZtJ3tF6trI1SN7-38" value="" style="endArrow=none;html=1;exitX=1;exitY=0.5;exitDx=0;exitDy=0;entryX=0;entryY=0.5;entryDx=0;entryDy=0;" parent="1" source="UvzDQ6ZtJ3tF6trI1SN7-32" target="UvzDQ6ZtJ3tF6trI1SN7-30" edge="1">
          <mxGeometry width="50" height="50" relative="1" as="geometry">
            <mxPoint x="390" y="680" as="sourcePoint" />
            <mxPoint x="440" y="630" as="targetPoint" />
          </mxGeometry>
        </mxCell>
        <mxCell id="UvzDQ6ZtJ3tF6trI1SN7-39" value="" style="endArrow=classic;html=1;exitX=0.5;exitY=1;exitDx=0;exitDy=0;entryX=0.5;entryY=0;entryDx=0;entryDy=0;" parent="1" source="UvzDQ6ZtJ3tF6trI1SN7-24" target="UvzDQ6ZtJ3tF6trI1SN7-30" edge="1">
          <mxGeometry width="50" height="50" relative="1" as="geometry">
            <mxPoint x="390" y="680" as="sourcePoint" />
            <mxPoint x="440" y="630" as="targetPoint" />
          </mxGeometry>
        </mxCell>
        <mxCell id="UvzDQ6ZtJ3tF6trI1SN7-42" value="Part 1:&lt;br&gt;Value of flag" style="rounded=1;whiteSpace=wrap;html=1;" parent="1" vertex="1">
          <mxGeometry x="170" y="190" width="120" height="40" as="geometry" />
        </mxCell>
        <mxCell id="UvzDQ6ZtJ3tF6trI1SN7-43" value="" style="endArrow=none;html=1;exitX=1;exitY=0.5;exitDx=0;exitDy=0;entryX=0;entryY=0.5;entryDx=0;entryDy=0;" parent="1" source="UvzDQ6ZtJ3tF6trI1SN7-42" target="UvzDQ6ZtJ3tF6trI1SN7-1" edge="1">
          <mxGeometry width="50" height="50" relative="1" as="geometry">
            <mxPoint x="390" y="430" as="sourcePoint" />
            <mxPoint x="440" y="380" as="targetPoint" />
          </mxGeometry>
        </mxCell>
        <mxCell id="UvzDQ6ZtJ3tF6trI1SN7-44" value="Additional Part 2:&lt;br&gt;Count of files which need to send or receive" style="rounded=1;whiteSpace=wrap;html=1;" parent="1" vertex="1">
          <mxGeometry x="490" y="177.5" width="120" height="65" as="geometry" />
        </mxCell>
        <mxCell id="UvzDQ6ZtJ3tF6trI1SN7-45" value="" style="endArrow=none;html=1;entryX=0.5;entryY=1;entryDx=0;entryDy=0;exitX=0.5;exitY=0;exitDx=0;exitDy=0;" parent="1" source="UvzDQ6ZtJ3tF6trI1SN7-11" target="UvzDQ6ZtJ3tF6trI1SN7-44" edge="1">
          <mxGeometry width="50" height="50" relative="1" as="geometry">
            <mxPoint x="390" y="410" as="sourcePoint" />
            <mxPoint x="440" y="360" as="targetPoint" />
          </mxGeometry>
        </mxCell>
        <mxCell id="UvzDQ6ZtJ3tF6trI1SN7-46" value="" style="endArrow=classic;startArrow=classic;html=1;entryX=0;entryY=0.5;entryDx=0;entryDy=0;exitX=1;exitY=0.5;exitDx=0;exitDy=0;" parent="1" source="UvzDQ6ZtJ3tF6trI1SN7-1" target="UvzDQ6ZtJ3tF6trI1SN7-44" edge="1">
          <mxGeometry width="50" height="50" relative="1" as="geometry">
            <mxPoint x="390" y="410" as="sourcePoint" />
            <mxPoint x="440" y="360" as="targetPoint" />
          </mxGeometry>
        </mxCell>
        <mxCell id="UvzDQ6ZtJ3tF6trI1SN7-47" value="&lt;span&gt;Write or read int (count of files)&amp;nbsp;&lt;/span&gt;" style="rounded=0;whiteSpace=wrap;html=1;" parent="1" vertex="1">
          <mxGeometry x="490" y="437.5" width="120" height="40" as="geometry" />
        </mxCell>
        <mxCell id="UvzDQ6ZtJ3tF6trI1SN7-50" value="" style="endArrow=classic;html=1;exitX=0.5;exitY=1;exitDx=0;exitDy=0;entryX=0.5;entryY=0;entryDx=0;entryDy=0;" parent="1" source="UvzDQ6ZtJ3tF6trI1SN7-11" target="UvzDQ6ZtJ3tF6trI1SN7-14" edge="1">
          <mxGeometry width="50" height="50" relative="1" as="geometry">
            <mxPoint x="390" y="410" as="sourcePoint" />
            <mxPoint x="440" y="360" as="targetPoint" />
          </mxGeometry>
        </mxCell>
        <mxCell id="UvzDQ6ZtJ3tF6trI1SN7-53" value="" style="endArrow=classic;html=1;exitX=0.5;exitY=1;exitDx=0;exitDy=0;entryX=1;entryY=0.5;entryDx=0;entryDy=0;" parent="1" source="UvzDQ6ZtJ3tF6trI1SN7-47" target="UvzDQ6ZtJ3tF6trI1SN7-18" edge="1">
          <mxGeometry width="50" height="50" relative="1" as="geometry">
            <mxPoint x="550" y="570" as="sourcePoint" />
            <mxPoint x="600" y="520" as="targetPoint" />
          </mxGeometry>
        </mxCell>
        <mxCell id="UvzDQ6ZtJ3tF6trI1SN7-57" value="" style="edgeStyle=orthogonalEdgeStyle;rounded=0;sketch=0;orthogonalLoop=1;jettySize=auto;html=1;shadow=0;labelBackgroundColor=#FFFFFF;sourcePerimeterSpacing=0;strokeColor=#00FF00;strokeWidth=2;fontColor=#FFFFFF;" parent="1" source="UvzDQ6ZtJ3tF6trI1SN7-54" target="UvzDQ6ZtJ3tF6trI1SN7-47" edge="1">
          <mxGeometry relative="1" as="geometry" />
        </mxCell>
        <mxCell id="UvzDQ6ZtJ3tF6trI1SN7-54" value="Flag is Multiple Files?" style="rhombus;whiteSpace=wrap;html=1;" parent="1" vertex="1">
          <mxGeometry x="285" y="430" width="170" height="55" as="geometry" />
        </mxCell>
        <mxCell id="UvzDQ6ZtJ3tF6trI1SN7-55" value="" style="endArrow=classic;html=1;exitX=0.5;exitY=1;exitDx=0;exitDy=0;entryX=0.5;entryY=0;entryDx=0;entryDy=0;" parent="1" source="UvzDQ6ZtJ3tF6trI1SN7-14" target="UvzDQ6ZtJ3tF6trI1SN7-54" edge="1">
          <mxGeometry width="50" height="50" relative="1" as="geometry">
            <mxPoint x="390" y="610" as="sourcePoint" />
            <mxPoint x="440" y="560" as="targetPoint" />
          </mxGeometry>
        </mxCell>
        <mxCell id="UvzDQ6ZtJ3tF6trI1SN7-56" value="" style="endArrow=classic;html=1;exitX=1;exitY=0.5;exitDx=0;exitDy=0;entryX=0;entryY=0.5;entryDx=0;entryDy=0;labelBackgroundColor=#FFFFFF;fontColor=#FFFFFF;shadow=0;strokeWidth=2;sketch=0;labelBorderColor=none;sourcePerimeterSpacing=0;jumpStyle=sharp;curved=1;strokeColor=#00AB00;" parent="1" source="UvzDQ6ZtJ3tF6trI1SN7-54" target="UvzDQ6ZtJ3tF6trI1SN7-47" edge="1">
          <mxGeometry width="50" height="50" relative="1" as="geometry">
            <mxPoint x="390" y="610" as="sourcePoint" />
            <mxPoint x="440" y="560" as="targetPoint" />
          </mxGeometry>
        </mxCell>
        <mxCell id="UvzDQ6ZtJ3tF6trI1SN7-58" value="" style="endArrow=classic;html=1;exitX=0.5;exitY=1;exitDx=0;exitDy=0;entryX=0.5;entryY=0;entryDx=0;entryDy=0;labelBackgroundColor=#FFFFFF;fontColor=#FFFFFF;shadow=0;strokeWidth=2;sketch=0;labelBorderColor=none;sourcePerimeterSpacing=0;jumpStyle=sharp;curved=1;strokeColor=#F70A0A;" parent="1" source="UvzDQ6ZtJ3tF6trI1SN7-54" target="UvzDQ6ZtJ3tF6trI1SN7-18" edge="1">
          <mxGeometry width="50" height="50" relative="1" as="geometry">
            <mxPoint x="465" y="467.5" as="sourcePoint" />
            <mxPoint x="500" y="467.5" as="targetPoint" />
          </mxGeometry>
        </mxCell>
        <mxCell id="UvzDQ6ZtJ3tF6trI1SN7-59" value="Write in stream or read from stream int16 or short (length) and string (file itself)" style="rounded=0;whiteSpace=wrap;html=1;" parent="1" vertex="1">
          <mxGeometry x="310" y="770" width="120" height="60" as="geometry" />
        </mxCell>
        <mxCell id="UvzDQ6ZtJ3tF6trI1SN7-60" value="" style="endArrow=classic;html=1;shadow=0;labelBackgroundColor=#FFFFFF;strokeWidth=1;fontColor=#FFFFFF;exitX=0.5;exitY=1;exitDx=0;exitDy=0;entryX=0.5;entryY=0;entryDx=0;entryDy=0;" parent="1" source="UvzDQ6ZtJ3tF6trI1SN7-30" target="UvzDQ6ZtJ3tF6trI1SN7-59" edge="1">
          <mxGeometry width="50" height="50" relative="1" as="geometry">
            <mxPoint x="530" y="710" as="sourcePoint" />
            <mxPoint x="470" y="640" as="targetPoint" />
          </mxGeometry>
        </mxCell>
        <mxCell id="UvzDQ6ZtJ3tF6trI1SN7-61" value="&lt;font color=&quot;#000000&quot;&gt;Are there any files left that weren&#39;t read or sent?&amp;nbsp;&lt;/font&gt;" style="rhombus;whiteSpace=wrap;fontColor=#FFFFFF;html=1;" parent="1" vertex="1">
          <mxGeometry x="230" y="850" width="280" height="80" as="geometry" />
        </mxCell>
        <mxCell id="UvzDQ6ZtJ3tF6trI1SN7-62" value="" style="endArrow=none;dashed=1;html=1;dashPattern=1 3;strokeWidth=2;shadow=0;labelBackgroundColor=#FFFFFF;fontColor=#FFFFFF;entryX=1;entryY=0.5;entryDx=0;entryDy=0;exitX=1;exitY=0.5;exitDx=0;exitDy=0;" parent="1" source="UvzDQ6ZtJ3tF6trI1SN7-61" target="UvzDQ6ZtJ3tF6trI1SN7-11" edge="1">
          <mxGeometry width="50" height="50" relative="1" as="geometry">
            <mxPoint x="620" y="850" as="sourcePoint" />
            <mxPoint x="640" y="220" as="targetPoint" />
            <Array as="points">
              <mxPoint x="720" y="890" />
              <mxPoint x="720" y="300" />
            </Array>
          </mxGeometry>
        </mxCell>
        <mxCell id="UvzDQ6ZtJ3tF6trI1SN7-64" value="" style="endArrow=classic;html=1;shadow=0;labelBackgroundColor=#FFFFFF;strokeColor=#000000;strokeWidth=1;fontColor=#FFFFFF;exitX=0.5;exitY=1;exitDx=0;exitDy=0;entryX=0.5;entryY=0;entryDx=0;entryDy=0;" parent="1" source="UvzDQ6ZtJ3tF6trI1SN7-59" target="UvzDQ6ZtJ3tF6trI1SN7-61" edge="1">
          <mxGeometry width="50" height="50" relative="1" as="geometry">
            <mxPoint x="690" y="740" as="sourcePoint" />
            <mxPoint x="740" y="690" as="targetPoint" />
          </mxGeometry>
        </mxCell>
        <mxCell id="UvzDQ6ZtJ3tF6trI1SN7-65" value="&lt;font color=&quot;#000000&quot;&gt;Continue to read&lt;/font&gt;" style="rounded=0;whiteSpace=wrap;html=1;fontColor=#FFFFFF;" parent="1" vertex="1">
          <mxGeometry x="465" y="690" width="120" height="60" as="geometry" />
        </mxCell>
        <mxCell id="UvzDQ6ZtJ3tF6trI1SN7-66" value="" style="endArrow=classic;html=1;exitX=1;exitY=0;exitDx=0;exitDy=0;entryX=0.5;entryY=1;entryDx=0;entryDy=0;labelBackgroundColor=#FFFFFF;fontColor=#FFFFFF;shadow=0;strokeWidth=2;sketch=0;labelBorderColor=none;sourcePerimeterSpacing=0;jumpStyle=sharp;curved=1;strokeColor=#00AB00;" parent="1" source="UvzDQ6ZtJ3tF6trI1SN7-61" target="UvzDQ6ZtJ3tF6trI1SN7-65" edge="1">
          <mxGeometry width="50" height="50" relative="1" as="geometry">
            <mxPoint x="465" y="467.5" as="sourcePoint" />
            <mxPoint x="500" y="467.5" as="targetPoint" />
          </mxGeometry>
        </mxCell>
        <mxCell id="UvzDQ6ZtJ3tF6trI1SN7-67" value="" style="endArrow=classic;html=1;shadow=0;labelBackgroundColor=#FFFFFF;strokeColor=#000000;strokeWidth=1;fontColor=#FFFFFF;entryX=1;entryY=0.5;entryDx=0;entryDy=0;exitX=0.5;exitY=0;exitDx=0;exitDy=0;" parent="1" source="UvzDQ6ZtJ3tF6trI1SN7-65" target="UvzDQ6ZtJ3tF6trI1SN7-18" edge="1">
          <mxGeometry width="50" height="50" relative="1" as="geometry">
            <mxPoint x="690" y="740" as="sourcePoint" />
            <mxPoint x="740" y="690" as="targetPoint" />
          </mxGeometry>
        </mxCell>
        <mxCell id="UvzDQ6ZtJ3tF6trI1SN7-68" value="&lt;font color=&quot;#000000&quot;&gt;The end&lt;/font&gt;" style="ellipse;whiteSpace=wrap;html=1;fontColor=#FFFFFF;" parent="1" vertex="1">
          <mxGeometry x="310" y="960" width="120" height="60" as="geometry" />
        </mxCell>
        <mxCell id="UvzDQ6ZtJ3tF6trI1SN7-69" value="" style="endArrow=classic;html=1;exitX=0.5;exitY=1;exitDx=0;exitDy=0;entryX=0.5;entryY=0;entryDx=0;entryDy=0;labelBackgroundColor=#FFFFFF;fontColor=#FFFFFF;shadow=0;strokeWidth=2;sketch=0;labelBorderColor=none;sourcePerimeterSpacing=0;jumpStyle=sharp;curved=1;strokeColor=#F70A0A;" parent="1" source="UvzDQ6ZtJ3tF6trI1SN7-61" target="UvzDQ6ZtJ3tF6trI1SN7-68" edge="1">
          <mxGeometry width="50" height="50" relative="1" as="geometry">
            <mxPoint x="380" y="495" as="sourcePoint" />
            <mxPoint x="380" y="560" as="targetPoint" />
          </mxGeometry>
        </mxCell>
      </root>
    </mxGraphModel>
  </diagram>
</mxfile>
